<svg version="1.1" xmlns="http://www.w3.org/2000/svg" xmlns:xlink="http://www.w3.org/1999/xlink" width="29.94304" height="28.6895" viewBox="0,0,29.94304,28.6895"><g transform="translate(-225.47943,-167.56592)"><g data-paper-data="{&quot;isPaintingLayer&quot;:true}" fill-rule="nonzero" stroke="none" stroke-linecap="butt" stroke-linejoin="miter" stroke-miterlimit="10" stroke-dasharray="" stroke-dashoffset="0" style="mix-blend-mode: normal"><path d="M225.47943,196.25542v-27.9731h29.94304v27.9731z" fill="#ffffff" stroke-width="0"/><path d="M235.58703,178.91997c0,-1.38071 1.11929,-2.5 2.5,-2.5c1.38071,0 2.5,1.11929 2.5,2.5c0,0.0663 -0.00258,0.132 -0.00765,0.19699c0.00507,0.065 0.00765,0.13069 0.00765,0.19699c0,1.38071 -1.11929,2.5 -2.5,2.5c-1.38071,0 -2.5,-1.11929 -2.5,-2.5c0,-0.0663 0.00258,-0.132 0.00765,-0.19699c-0.00507,-0.065 -0.00765,-0.13069 -0.00765,-0.19699z" fill="#ffffff" stroke-width="0.5"/><text transform="translate(235.54964,184.48829) scale(0.38902,0.38902)" font-size="40" xml:space="preserve" fill="#000000" fill-rule="nonzero" stroke="none" stroke-width="1" stroke-linecap="butt" stroke-linejoin="miter" stroke-miterlimit="10" stroke-dasharray="" stroke-dashoffset="0" font-family="Sans Serif" font-weight="normal" text-anchor="start" style="mix-blend-mode: normal"><tspan x="0" dy="0">2</tspan></text></g></g></svg>